<svg id="icon-logo" viewBox="0 0 200 200" width="100%" height="100%"><path d="M43.3,186.4c57.6-57.3,53-132,65.3-186.4C92.9,63.1,40.9,79.2,1,83.9 c-0.6,5.5-1,11.3-1,17.2c0,4.3,0.2,8.7,0.6,13.2c27.9-3.9,68.3-19,94.3-67.8c-20.2,58.6-64.4,74.4-92.7,79 c1.5,8.2,3.9,16.5,7.6,24.3c22.1-9.1,59.5-31.3,81.9-76.5c-17.8,52.1-55.7,75.3-77.2,85.3c3.3,5.3,7.2,10.4,11.8,15 c16.2-12,42.5-36.2,60.6-71.5c-14.5,41-38.8,65.1-53.9,77.3C36.1,182,39.5,184.3,43.3,186.4L43.3,186.4z M155.5,12.4 c3.6,2.3,6.8,4.8,9.9,7.5c-16.1,12-41.4,35.3-57.7,75.1c19.5-33.9,46.7-57.1,63.9-68.9c4.3,4.8,7.9,10,11.1,15.5 c-22.9,9.7-61.3,31.9-81.2,82.1c24.2-43.3,62.3-64.3,85.7-73.1c3.6,8.2,6.3,16.8,8.2,25.7c-30.2,4.7-77.4,20.7-100.6,78.5 c29-48.4,72.9-63.2,102.7-66.9c1.5,9.9,2.2,19.9,2.5,29.4c-41.8,1.9-98.8,13.7-119.2,79.5C95,142,94.8,67.8,155.5,12.4z"></path></svg>